HIERARCHY
ROOT RootJoint
{
    OFFSET   0.000000   0.000000   0.000000
    CHANNELS 6 Xposition Yposition Zposition Xrotation Yrotation Zrotation
    JOINT lHip
    {
        OFFSET   0.100000  -0.051395   0.000000
        CHANNELS 3 Xrotation Yrotation Zrotation
        JOINT lKnee
        {
            OFFSET   0.000000  -0.410000   0.000000
            CHANNELS 3 Xrotation Yrotation Zrotation
            JOINT lAnkle
            {
                OFFSET   0.000000  -0.390000   0.000000
                CHANNELS 3 Xrotation Yrotation Zrotation
                JOINT lToeJoint
                {
                    OFFSET   0.000000  -0.050000   0.130000
                    CHANNELS 3 Xrotation Yrotation Zrotation
                    End Site
                    {
                        OFFSET   0.010000   0.002000   0.060000
                    }
                }
            }
        }
    }
    JOINT pelvis_lowerback
    {
        OFFSET   0.000000   0.093605   0.000000
        CHANNELS 3 Xrotation Yrotation Zrotation
        JOINT lowerback_torso
        {
            OFFSET   0.000000   0.100000   0.000000
            CHANNELS 3 Xrotation Yrotation Zrotation
            JOINT lTorso_Clavicle
            {
                OFFSET   0.001000   0.157500   0.000000
                CHANNELS 3 Xrotation Yrotation Zrotation
                JOINT lShoulder
                {
                    OFFSET   0.117647   0.000000   0.000000
                    CHANNELS 3 Xrotation Yrotation Zrotation
                    JOINT lElbow
                    {
                        OFFSET   0.245000   0.000000   0.000000
                        CHANNELS 3 Xrotation Yrotation Zrotation
                        JOINT lWrist
                        {
                            OFFSET   0.240000   0.000000   0.000000
                            CHANNELS 3 Xrotation Yrotation Zrotation
                            End Site
                            {
                                OFFSET   0.116353  -0.002500   0.000000
                            }
                        }
                    }
                }
            }
            JOINT rTorso_Clavicle
            {
                OFFSET  -0.001000   0.157500   0.000000
                CHANNELS 3 Xrotation Yrotation Zrotation
                JOINT rShoulder
                {
                    OFFSET  -0.117647   0.000000   0.000000
                    CHANNELS 3 Xrotation Yrotation Zrotation
                    JOINT rElbow
                    {
                        OFFSET  -0.245000   0.000000   0.000000
                        CHANNELS 3 Xrotation Yrotation Zrotation
                        JOINT rWrist
                        {
                            OFFSET  -0.240000   0.000000   0.000000
                            CHANNELS 3 Xrotation Yrotation Zrotation
                            End Site
                            {
                                OFFSET  -0.116353  -0.002500   0.000000
                            }
                        }
                    }
                }
            }
            JOINT torso_head
            {
                OFFSET   0.000000   0.282350   0.000000
                CHANNELS 3 Xrotation Yrotation Zrotation
                End Site
                {
                    OFFSET   0.000000   0.192650   0.000000
                }
            }
        }
    }
    JOINT rHip
    {
        OFFSET  -0.100000  -0.051395   0.000000
        CHANNELS 3 Xrotation Yrotation Zrotation
        JOINT rKnee
        {
            OFFSET   0.000000  -0.410000   0.000000
            CHANNELS 3 Xrotation Yrotation Zrotation
            JOINT rAnkle
            {
                OFFSET   0.000000  -0.390000   0.000000
                CHANNELS 3 Xrotation Yrotation Zrotation
                JOINT rToeJoint
                {
                    OFFSET   0.000000  -0.050000   0.130000
                    CHANNELS 3 Xrotation Yrotation Zrotation
                    End Site
                    {
                        OFFSET  -0.010000   0.002000   0.060000
                    }
                }
            }
        }
    }
}
MOTION
Frames: 8
Frame Time:   0.016667
 -0.001735   0.855388   0.315499   2.008551   7.606260  -0.798294  11.216058  -3.286777  -1.592436  13.521250  -1.153514  -4.213484 -17.754157  -3.216621   9.232892  -7.948705   0.211932  -1.528529   2.220789  -0.981058  -1.133630   2.071938  -6.311876   2.083844   2.020309  -0.533885 -19.342332  -5.129554 -37.575293 -50.190804   0.198025 -24.741038   4.442069   0.442380   2.547494   4.858004   1.951773  -5.809334  21.100535  23.710456  30.003467  53.240376   0.414981  10.414544   1.952633   3.576914  -9.482057   6.918939   1.457480  -0.035296   0.111891 -27.722826  -1.655032   2.430426  -2.964232  -5.507982   1.444119   2.239212  -3.180259  -0.892285  -0.008100  -0.007000   0.024400
 -0.003810   0.853981   0.337002   2.017405   7.825929  -1.809751  11.713970  -2.355625   0.062023  15.198954  -1.861308  -4.389417 -17.189762  -3.614663   9.244711  -9.397213   0.262158  -1.565413   2.647300  -1.021514   0.131973   1.458470  -6.632789   1.868957   1.928817  -0.148344 -19.543616  -3.937845 -37.139413 -49.957499   0.204371 -24.672734   4.317351   0.916151   2.440320   4.849158   2.068848  -5.518149  21.184327  23.795785  30.805519  52.865110   0.417817  10.118764   1.952408   3.104611  -9.774695   7.021717   1.448893  -0.004226   0.069402 -27.594885  -2.728812   3.499348  -1.670271  -5.527619   1.835016   6.676684  -3.330738  -4.015991  -0.008600  -0.007000   0.026400
 -0.005963   0.852898   0.358713   1.996376   8.048270  -2.854969  11.998815  -1.153449   1.807912  17.215182  -2.698277  -4.537542 -16.442284  -4.080736   9.221577 -10.978309   0.302455  -1.538039   3.073604  -1.074488   1.400775   0.884854  -6.935044   1.723074   1.840409   0.246227 -19.783873  -2.649285 -36.723309 -49.692153   0.208841 -24.545390   4.206251   1.311628   2.360119   4.825898   2.182573  -5.216678  21.245688  23.833719  31.603557  52.460242   0.421827   9.814341   1.973567   2.722567 -10.078452   7.038314   1.434818   0.029635   0.015686 -27.623348  -3.597897   4.594641   0.146375  -5.591939   2.178879  10.591059  -3.689165  -6.624098  -0.009100  -0.007100   0.028300
 -0.008429   0.853105   0.381253   1.844578   8.283840  -4.033197  11.479783   1.071206   3.963440  20.591957  -4.037281  -4.601736 -14.964169  -4.822041   9.055852 -13.089831   0.293544  -1.258375   3.497978  -1.205797   2.681976   0.476694  -7.171570   1.865167   1.761246   0.676113 -20.181886  -0.946911 -36.393633 -49.261305   0.205475 -24.181841   4.149522   1.394140   2.387990   4.741760   2.284701  -4.874699  21.219267  23.661332  32.388128  51.952550   0.430922   9.475356   2.080172   2.699963 -10.423642   6.718394   1.398755   0.074668  -0.082937 -28.349309  -3.666398   5.782404   4.054806  -5.860066   2.344450  12.457164  -4.024688  -7.231643  -0.009600  -0.007600   0.029800
 -0.010811   0.853903   0.404154   1.648196   8.333077  -5.016732  10.493485   3.543190   5.922118  24.522070  -5.483665  -4.354751 -12.812902  -5.534404   8.776642 -15.428273   0.184665  -0.717879   3.810613  -1.314723   3.702182   0.236265  -7.286612   2.085179   1.682899   1.107087 -20.543700   0.773035 -36.060080 -48.911521   0.199273 -23.690359   4.097997   1.512116   2.476270   4.614549   2.372733  -4.459166  21.123159  23.392596  33.190477  51.505281   0.436639   9.138842   2.134493   2.553849 -10.771508   6.480282   1.374674   0.126868  -0.171521 -28.925222  -3.690232   6.801340   7.944745  -6.145399   2.645209  13.556466  -4.293093  -7.727068  -0.010100  -0.007967   0.031167
 -0.012981   0.856178   0.427955   1.327837   7.911709  -5.514544   8.462659   6.645425   7.414322  29.853233  -7.140032  -3.396881  -8.979271  -6.190845   8.200383 -18.329345  -0.190725   0.464017   3.838050  -1.387975   4.067776   0.413402  -7.094973   2.502973   1.601523   1.539873 -20.815830   2.553684 -35.735768 -48.742579   0.185555 -22.879044   4.059385   1.719320   2.715285   4.379159   2.427088  -3.859810  20.853887  22.868495  34.035966  51.216752   0.432281   8.808476   2.058237   2.102736 -11.126179   6.445900   1.380435   0.196850  -0.235071 -29.129991  -3.571617   7.400251  11.786715  -6.472828   3.259956  12.744662  -4.349565  -7.966196  -0.010600  -0.008000   0.032200
 -0.015078   0.859172   0.451992   0.955746   7.375133  -5.794739   6.203206   9.291208   8.569901  35.402531  -8.438613  -2.091811  -4.453608  -6.588708   7.351091 -20.801053  -0.794934   2.069183   3.778539  -1.410444   4.190852   0.715464  -6.846500   2.884434   1.512507   1.924205 -20.977609   4.224655 -35.282196 -48.767098   0.173262 -22.002912   3.974493   2.174521   3.053380   4.031398   2.483538  -3.251821  20.582745  22.303443  34.918440  50.945908   0.424511   8.554073   1.933975   1.614917 -11.463477   6.409157   1.402398   0.261932  -0.270925 -28.922581  -3.555667   7.790882  15.118229  -6.530026   3.926576  11.522045  -4.222386  -8.249348  -0.010300  -0.007400   0.030900
 -0.016972   0.864449   0.476607   0.441892   6.555654  -5.395968   3.757452  10.054819   8.153064  41.095600  -8.462043  -0.209506   2.182205  -5.975496   5.331485 -21.321992  -2.012080   5.179072   3.485530  -1.241016   3.606354   1.355651  -6.498138   3.042583   1.387506   2.112515 -20.735391   5.458618 -34.325985 -49.461862   0.170599 -20.995461   3.699017   3.588057   3.719462   3.270618   2.552755  -2.682124  20.374127  21.679189  35.926158  50.663885   0.409090   8.601083   1.669742   1.103630 -11.728243   6.290180   1.476961   0.300392  -0.205998 -27.211245  -4.008845   7.523317  16.399664  -5.624932   4.592509   9.426383  -3.448201  -8.790731  -0.006800  -0.004400   0.020400
